<mxfile host="app.diagrams.net" modified="2023-09-01T06:17:47.954Z" agent="Mozilla/5.0 (Linux; Android 13) AppleWebKit/537.36 (KHTML, like Gecko) Version/4.0 Chrome/116.0.0.0 DuckDuckGo/5 Safari/537.36" etag="Nlg3HLSytnsP9tDB5hc6" version="21.7.1" type="github">
  <diagram name="Page-1" id="EsdEEDjkPf1RpWRIo3JP">
    <mxGraphModel dx="1192" dy="797" grid="1" gridSize="10" guides="1" tooltips="1" connect="1" arrows="1" fold="1" page="1" pageScale="1" pageWidth="827" pageHeight="1169" math="0" shadow="0">
      <root>
        <mxCell id="0" />
        <mxCell id="1" parent="0" />
        <mxCell id="Z-gpqsmiPJlEeWuAyIEc-1" value="&lt;h1&gt;coinstock (cost)&lt;/h1&gt;&lt;p&gt;cost on the market, sale and buy.&lt;/p&gt;&lt;p&gt;suport ioi.&lt;/p&gt;" style="text;html=1;strokeColor=none;fillColor=none;spacing=5;spacingTop=-20;whiteSpace=wrap;overflow=hidden;rounded=0;movable=0;resizable=0;rotatable=0;deletable=0;editable=0;locked=1;connectable=0;" vertex="1" parent="1">
          <mxGeometry x="20" y="20" width="190" height="110" as="geometry" />
        </mxCell>
      </root>
    </mxGraphModel>
  </diagram>
</mxfile>
